<svg width="17" height="17" viewBox="0 0 17 17" fill="none" xmlns="http://www.w3.org/2000/svg">
<mask id="mask0_389_3327" style="mask-type:alpha" maskUnits="userSpaceOnUse" x="0" y="0" width="17" height="17">
<rect width="17" height="17" transform="matrix(0 -1 -1 0 17 17)" fill="#D9D9D9"/>
</mask>
<g mask="url(#mask0_389_3327)">
<path d="M11.4569 9.2085L7.98607 12.6793C7.8444 12.821 7.77652 12.9863 7.78242 13.1752C7.78832 13.3641 7.86211 13.5293 8.00378 13.671C8.14544 13.8009 8.31072 13.8687 8.49961 13.8746C8.6885 13.8805 8.85378 13.8127 8.99544 13.671L13.6704 8.996C13.7413 8.92517 13.7914 8.84843 13.821 8.76579C13.8505 8.68315 13.8652 8.59461 13.8652 8.50017C13.8652 8.40572 13.8505 8.31718 13.821 8.23454C13.7914 8.1519 13.7413 8.07517 13.6704 8.00433L8.99544 3.32933C8.86558 3.19947 8.70326 3.13454 8.50846 3.13454C8.31367 3.13454 8.14544 3.19947 8.00378 3.32933C7.86211 3.471 7.79128 3.63923 7.79128 3.83402C7.79128 4.02881 7.86211 4.19704 8.00378 4.33871L11.4569 7.79183L3.54128 7.79183C3.34058 7.79183 3.17235 7.85971 3.03659 7.99548C2.90082 8.13124 2.83294 8.29947 2.83294 8.50017C2.83294 8.70086 2.90082 8.86909 3.03659 9.00485C3.17235 9.14062 3.34058 9.2085 3.54128 9.2085L11.4569 9.2085Z" fill="#1C1B1F"/>
</g>
</svg>
